<svg xmlns="http://www.w3.org/2000/svg" width="1000" height="600" viewBox="0 0 1000 600">
<rect x="0" y="0" width="1000" height="600" fill="#ffffff"/>
<text x="500.0" y="36" text-anchor="middle" font-size="25" font-family="sans-serif" font-weight="600">车辆规模与调度计算时间</text>
<line x1="95" y1="70.0" x2="965" y2="70.0" stroke="#e5e7eb"/>
<text x="83" y="75.0" text-anchor="end" font-size="14" font-family="sans-serif">83.3</text>
<line x1="95" y1="160.0" x2="965" y2="160.0" stroke="#e5e7eb"/>
<text x="83" y="165.0" text-anchor="end" font-size="14" font-family="sans-serif">10.1</text>
<line x1="95" y1="250.0" x2="965" y2="250.0" stroke="#e5e7eb"/>
<text x="83" y="255.0" text-anchor="end" font-size="14" font-family="sans-serif">1.22</text>
<line x1="95" y1="340.0" x2="965" y2="340.0" stroke="#e5e7eb"/>
<text x="83" y="345.0" text-anchor="end" font-size="14" font-family="sans-serif">0.147</text>
<line x1="95" y1="430.0" x2="965" y2="430.0" stroke="#e5e7eb"/>
<text x="83" y="435.0" text-anchor="end" font-size="14" font-family="sans-serif">0.0178</text>
<line x1="95" y1="520.0" x2="965" y2="520.0" stroke="#e5e7eb"/>
<text x="83" y="525.0" text-anchor="end" font-size="14" font-family="sans-serif">0.00215</text>
<line x1="95" y1="70" x2="95" y2="520" stroke="#374151"/>
<line x1="95" y1="520" x2="965" y2="520" stroke="#374151"/>
<text x="530.0" y="576" text-anchor="middle" font-size="17" font-family="sans-serif">车辆数量</text>
<text x="24" y="295.0" transform="rotate(-90 24 295.0)" text-anchor="middle" font-size="17" font-family="sans-serif">平均耗时 (ms，对数刻度)</text>
<line x1="95.0" y1="520" x2="95.0" y2="527" stroke="#374151"/>
<text x="95.0" y="546" text-anchor="middle" font-size="14" font-family="sans-serif">20</text>
<line x1="269.0" y1="520" x2="269.0" y2="527" stroke="#374151"/>
<text x="269.0" y="546" text-anchor="middle" font-size="14" font-family="sans-serif">116</text>
<line x1="443.0" y1="520" x2="443.0" y2="527" stroke="#374151"/>
<text x="443.0" y="546" text-anchor="middle" font-size="14" font-family="sans-serif">212</text>
<line x1="617.0" y1="520" x2="617.0" y2="527" stroke="#374151"/>
<text x="617.0" y="546" text-anchor="middle" font-size="14" font-family="sans-serif">308</text>
<line x1="791.0" y1="520" x2="791.0" y2="527" stroke="#374151"/>
<text x="791.0" y="546" text-anchor="middle" font-size="14" font-family="sans-serif">404</text>
<line x1="965.0" y1="520" x2="965.0" y2="527" stroke="#374151"/>
<text x="965.0" y="546" text-anchor="middle" font-size="14" font-family="sans-serif">500</text>
<polyline points="95.0,410.2 149.4,464.3 240.0,476.5 421.2,466.9 965.0,444.6" fill="none" stroke="#2563eb" stroke-width="3"/>
<circle cx="95.0" cy="410.2" r="5" fill="#2563eb"/>
<circle cx="149.4" cy="464.3" r="5" fill="#2563eb"/>
<circle cx="240.0" cy="476.5" r="5" fill="#2563eb"/>
<circle cx="421.2" cy="466.9" r="5" fill="#2563eb"/>
<circle cx="965.0" cy="444.6" r="5" fill="#2563eb"/>
<line x1="95" y1="55" x2="123" y2="55" stroke="#2563eb" stroke-width="4"/>
<text x="131" y="61" font-size="15" font-family="sans-serif">NF</text>
<polyline points="95.0,113.5 149.4,126.2 240.0,124.9 421.2,122.4 965.0,113.7" fill="none" stroke="#dc2626" stroke-width="3"/>
<circle cx="95.0" cy="113.5" r="5" fill="#dc2626"/>
<circle cx="149.4" cy="126.2" r="5" fill="#dc2626"/>
<circle cx="240.0" cy="124.9" r="5" fill="#dc2626"/>
<circle cx="421.2" cy="122.4" r="5" fill="#dc2626"/>
<circle cx="965.0" cy="113.7" r="5" fill="#dc2626"/>
<line x1="275" y1="55" x2="303" y2="55" stroke="#dc2626" stroke-width="4"/>
<text x="311" y="61" font-size="15" font-family="sans-serif">SA</text>
</svg>