<svg xmlns="http://www.w3.org/2000/svg" width="1000" height="600" viewBox="0 0 1000 600">
<rect x="0" y="0" width="1000" height="600" fill="#ffffff"/>
<text x="500.0" y="36" text-anchor="middle" font-size="25" font-family="sans-serif" font-weight="600">并发用户数与 P95 响应时间</text>
<line x1="95" y1="70.0" x2="965" y2="70.0" stroke="#e5e7eb"/>
<text x="83" y="75.0" text-anchor="end" font-size="14" font-family="sans-serif">70.9</text>
<line x1="95" y1="160.0" x2="965" y2="160.0" stroke="#e5e7eb"/>
<text x="83" y="165.0" text-anchor="end" font-size="14" font-family="sans-serif">56</text>
<line x1="95" y1="250.0" x2="965" y2="250.0" stroke="#e5e7eb"/>
<text x="83" y="255.0" text-anchor="end" font-size="14" font-family="sans-serif">41.1</text>
<line x1="95" y1="340.0" x2="965" y2="340.0" stroke="#e5e7eb"/>
<text x="83" y="345.0" text-anchor="end" font-size="14" font-family="sans-serif">26.2</text>
<line x1="95" y1="430.0" x2="965" y2="430.0" stroke="#e5e7eb"/>
<text x="83" y="435.0" text-anchor="end" font-size="14" font-family="sans-serif">11.3</text>
<line x1="95" y1="520.0" x2="965" y2="520.0" stroke="#e5e7eb"/>
<text x="83" y="525.0" text-anchor="end" font-size="14" font-family="sans-serif">-3.58</text>
<line x1="95" y1="70" x2="95" y2="520" stroke="#374151"/>
<line x1="95" y1="520" x2="965" y2="520" stroke="#374151"/>
<text x="530.0" y="576" text-anchor="middle" font-size="17" font-family="sans-serif">并发用户数 (VU)</text>
<text x="24" y="295.0" transform="rotate(-90 24 295.0)" text-anchor="middle" font-size="17" font-family="sans-serif">P95 (ms)</text>
<line x1="95.0" y1="520" x2="95.0" y2="527" stroke="#374151"/>
<text x="95.0" y="546" text-anchor="middle" font-size="14" font-family="sans-serif">10</text>
<line x1="269.0" y1="520" x2="269.0" y2="527" stroke="#374151"/>
<text x="269.0" y="546" text-anchor="middle" font-size="14" font-family="sans-serif">48</text>
<line x1="443.0" y1="520" x2="443.0" y2="527" stroke="#374151"/>
<text x="443.0" y="546" text-anchor="middle" font-size="14" font-family="sans-serif">86</text>
<line x1="617.0" y1="520" x2="617.0" y2="527" stroke="#374151"/>
<text x="617.0" y="546" text-anchor="middle" font-size="14" font-family="sans-serif">124</text>
<line x1="791.0" y1="520" x2="791.0" y2="527" stroke="#374151"/>
<text x="791.0" y="546" text-anchor="middle" font-size="14" font-family="sans-serif">162</text>
<line x1="965.0" y1="520" x2="965.0" y2="527" stroke="#374151"/>
<text x="965.0" y="546" text-anchor="middle" font-size="14" font-family="sans-serif">200</text>
<polyline points="95.0,476.5 278.2,462.4 507.1,426.7 965.0,422.9" fill="none" stroke="#2563eb" stroke-width="3"/>
<circle cx="95.0" cy="476.5" r="5" fill="#2563eb"/>
<circle cx="278.2" cy="462.4" r="5" fill="#2563eb"/>
<circle cx="507.1" cy="426.7" r="5" fill="#2563eb"/>
<circle cx="965.0" cy="422.9" r="5" fill="#2563eb"/>
<line x1="95" y1="55" x2="123" y2="55" stroke="#2563eb" stroke-width="4"/>
<text x="131" y="61" font-size="15" font-family="sans-serif">vehicles</text>
<polyline points="95.0,448.5 278.2,423.5 507.1,412.0 965.0,445.2" fill="none" stroke="#dc2626" stroke-width="3"/>
<circle cx="95.0" cy="448.5" r="5" fill="#dc2626"/>
<circle cx="278.2" cy="423.5" r="5" fill="#dc2626"/>
<circle cx="507.1" cy="412.0" r="5" fill="#dc2626"/>
<circle cx="965.0" cy="445.2" r="5" fill="#dc2626"/>
<line x1="275" y1="55" x2="303" y2="55" stroke="#dc2626" stroke-width="4"/>
<text x="311" y="61" font-size="15" font-family="sans-serif">shipments</text>
<polyline points="95.0,448.3 278.2,209.1 507.1,310.1 965.0,113.5" fill="none" stroke="#16a34a" stroke-width="3"/>
<circle cx="95.0" cy="448.3" r="5" fill="#16a34a"/>
<circle cx="278.2" cy="209.1" r="5" fill="#16a34a"/>
<circle cx="507.1" cy="310.1" r="5" fill="#16a34a"/>
<circle cx="965.0" cy="113.5" r="5" fill="#16a34a"/>
<line x1="455" y1="55" x2="483" y2="55" stroke="#16a34a" stroke-width="4"/>
<text x="491" y="61" font-size="15" font-family="sans-serif">report</text>
</svg>