<svg xmlns="http://www.w3.org/2000/svg" width="1000" height="600" viewBox="0 0 1000 600">
<rect x="0" y="0" width="1000" height="600" fill="#ffffff"/>
<text x="500.0" y="36" text-anchor="middle" font-size="25" font-family="sans-serif" font-weight="600">并发用户数与 QPS</text>
<line x1="95" y1="70.0" x2="965" y2="70.0" stroke="#e5e7eb"/>
<text x="83" y="75.0" text-anchor="end" font-size="14" font-family="sans-serif">2.14e+03</text>
<line x1="95" y1="160.0" x2="965" y2="160.0" stroke="#e5e7eb"/>
<text x="83" y="165.0" text-anchor="end" font-size="14" font-family="sans-serif">1.69e+03</text>
<line x1="95" y1="250.0" x2="965" y2="250.0" stroke="#e5e7eb"/>
<text x="83" y="255.0" text-anchor="end" font-size="14" font-family="sans-serif">1.24e+03</text>
<line x1="95" y1="340.0" x2="965" y2="340.0" stroke="#e5e7eb"/>
<text x="83" y="345.0" text-anchor="end" font-size="14" font-family="sans-serif">782</text>
<line x1="95" y1="430.0" x2="965" y2="430.0" stroke="#e5e7eb"/>
<text x="83" y="435.0" text-anchor="end" font-size="14" font-family="sans-serif">328</text>
<line x1="95" y1="520.0" x2="965" y2="520.0" stroke="#e5e7eb"/>
<text x="83" y="525.0" text-anchor="end" font-size="14" font-family="sans-serif">-126</text>
<line x1="95" y1="70" x2="95" y2="520" stroke="#374151"/>
<line x1="95" y1="520" x2="965" y2="520" stroke="#374151"/>
<text x="530.0" y="576" text-anchor="middle" font-size="17" font-family="sans-serif">并发用户数 (VU)</text>
<text x="24" y="295.0" transform="rotate(-90 24 295.0)" text-anchor="middle" font-size="17" font-family="sans-serif">QPS</text>
<line x1="95.0" y1="520" x2="95.0" y2="527" stroke="#374151"/>
<text x="95.0" y="546" text-anchor="middle" font-size="14" font-family="sans-serif">10</text>
<line x1="269.0" y1="520" x2="269.0" y2="527" stroke="#374151"/>
<text x="269.0" y="546" text-anchor="middle" font-size="14" font-family="sans-serif">48</text>
<line x1="443.0" y1="520" x2="443.0" y2="527" stroke="#374151"/>
<text x="443.0" y="546" text-anchor="middle" font-size="14" font-family="sans-serif">86</text>
<line x1="617.0" y1="520" x2="617.0" y2="527" stroke="#374151"/>
<text x="617.0" y="546" text-anchor="middle" font-size="14" font-family="sans-serif">124</text>
<line x1="791.0" y1="520" x2="791.0" y2="527" stroke="#374151"/>
<text x="791.0" y="546" text-anchor="middle" font-size="14" font-family="sans-serif">162</text>
<line x1="965.0" y1="520" x2="965.0" y2="527" stroke="#374151"/>
<text x="965.0" y="546" text-anchor="middle" font-size="14" font-family="sans-serif">200</text>
<polyline points="95.0,475.8 278.2,399.1 507.1,305.7 965.0,113.9" fill="none" stroke="#2563eb" stroke-width="3"/>
<circle cx="95.0" cy="475.8" r="5" fill="#2563eb"/>
<circle cx="278.2" cy="399.1" r="5" fill="#2563eb"/>
<circle cx="507.1" cy="305.7" r="5" fill="#2563eb"/>
<circle cx="965.0" cy="113.9" r="5" fill="#2563eb"/>
<line x1="95" y1="55" x2="123" y2="55" stroke="#2563eb" stroke-width="4"/>
<text x="131" y="61" font-size="15" font-family="sans-serif">vehicles</text>
<polyline points="95.0,476.4 278.2,402.3 507.1,306.8 965.0,113.5" fill="none" stroke="#dc2626" stroke-width="3"/>
<circle cx="95.0" cy="476.4" r="5" fill="#dc2626"/>
<circle cx="278.2" cy="402.3" r="5" fill="#dc2626"/>
<circle cx="507.1" cy="306.8" r="5" fill="#dc2626"/>
<circle cx="965.0" cy="113.5" r="5" fill="#dc2626"/>
<line x1="275" y1="55" x2="303" y2="55" stroke="#dc2626" stroke-width="4"/>
<text x="311" y="61" font-size="15" font-family="sans-serif">shipments</text>
<polyline points="95.0,476.5 278.2,406.0 507.1,311.2 965.0,149.2" fill="none" stroke="#16a34a" stroke-width="3"/>
<circle cx="95.0" cy="476.5" r="5" fill="#16a34a"/>
<circle cx="278.2" cy="406.0" r="5" fill="#16a34a"/>
<circle cx="507.1" cy="311.2" r="5" fill="#16a34a"/>
<circle cx="965.0" cy="149.2" r="5" fill="#16a34a"/>
<line x1="455" y1="55" x2="483" y2="55" stroke="#16a34a" stroke-width="4"/>
<text x="491" y="61" font-size="15" font-family="sans-serif">report</text>
</svg>