<svg xmlns="http://www.w3.org/2000/svg" width="1000" height="600" viewBox="0 0 1000 600">
<rect x="0" y="0" width="1000" height="600" fill="#ffffff"/>
<text x="500.0" y="36" text-anchor="middle" font-size="25" font-family="sans-serif" font-weight="600">持续发单下的待调度订单数量</text>
<line x1="95" y1="70.0" x2="965" y2="70.0" stroke="#e5e7eb"/>
<text x="83" y="75.0" text-anchor="end" font-size="14" font-family="sans-serif">120</text>
<line x1="95" y1="160.0" x2="965" y2="160.0" stroke="#e5e7eb"/>
<text x="83" y="165.0" text-anchor="end" font-size="14" font-family="sans-serif">93.3</text>
<line x1="95" y1="250.0" x2="965" y2="250.0" stroke="#e5e7eb"/>
<text x="83" y="255.0" text-anchor="end" font-size="14" font-family="sans-serif">66.8</text>
<line x1="95" y1="340.0" x2="965" y2="340.0" stroke="#e5e7eb"/>
<text x="83" y="345.0" text-anchor="end" font-size="14" font-family="sans-serif">40.2</text>
<line x1="95" y1="430.0" x2="965" y2="430.0" stroke="#e5e7eb"/>
<text x="83" y="435.0" text-anchor="end" font-size="14" font-family="sans-serif">13.7</text>
<line x1="95" y1="520.0" x2="965" y2="520.0" stroke="#e5e7eb"/>
<text x="83" y="525.0" text-anchor="end" font-size="14" font-family="sans-serif">-12.8</text>
<line x1="95" y1="70" x2="95" y2="520" stroke="#374151"/>
<line x1="95" y1="520" x2="965" y2="520" stroke="#374151"/>
<text x="530.0" y="576" text-anchor="middle" font-size="17" font-family="sans-serif">测试时间 (秒)</text>
<text x="24" y="295.0" transform="rotate(-90 24 295.0)" text-anchor="middle" font-size="17" font-family="sans-serif">待调度订单数</text>
<line x1="95.0" y1="520" x2="95.0" y2="527" stroke="#374151"/>
<text x="95.0" y="546" text-anchor="middle" font-size="14" font-family="sans-serif">0</text>
<line x1="269.0" y1="520" x2="269.0" y2="527" stroke="#374151"/>
<text x="269.0" y="546" text-anchor="middle" font-size="14" font-family="sans-serif">4</text>
<line x1="443.0" y1="520" x2="443.0" y2="527" stroke="#374151"/>
<text x="443.0" y="546" text-anchor="middle" font-size="14" font-family="sans-serif">8</text>
<line x1="617.0" y1="520" x2="617.0" y2="527" stroke="#374151"/>
<text x="617.0" y="546" text-anchor="middle" font-size="14" font-family="sans-serif">12</text>
<line x1="791.0" y1="520" x2="791.0" y2="527" stroke="#374151"/>
<text x="791.0" y="546" text-anchor="middle" font-size="14" font-family="sans-serif">16</text>
<line x1="965.0" y1="520" x2="965.0" y2="527" stroke="#374151"/>
<text x="965.0" y="546" text-anchor="middle" font-size="14" font-family="sans-serif">20</text>
<polyline points="95.0,476.5 138.5,469.7 182.0,473.1 225.5,469.7 269.0,466.3 312.5,462.9 356.0,459.5 399.5,456.1 443.0,469.7 486.5,466.3 530.0,462.9 573.5,459.5 617.0,456.1 660.5,452.7 704.0,466.3 747.5,462.9 791.0,459.5 834.5,456.1 878.0,452.7 921.5,449.3" fill="none" stroke="#2563eb" stroke-width="3"/>
<circle cx="95.0" cy="476.5" r="5" fill="#2563eb"/>
<circle cx="138.5" cy="469.7" r="5" fill="#2563eb"/>
<circle cx="182.0" cy="473.1" r="5" fill="#2563eb"/>
<circle cx="225.5" cy="469.7" r="5" fill="#2563eb"/>
<circle cx="269.0" cy="466.3" r="5" fill="#2563eb"/>
<circle cx="312.5" cy="462.9" r="5" fill="#2563eb"/>
<circle cx="356.0" cy="459.5" r="5" fill="#2563eb"/>
<circle cx="399.5" cy="456.1" r="5" fill="#2563eb"/>
<circle cx="443.0" cy="469.7" r="5" fill="#2563eb"/>
<circle cx="486.5" cy="466.3" r="5" fill="#2563eb"/>
<circle cx="530.0" cy="462.9" r="5" fill="#2563eb"/>
<circle cx="573.5" cy="459.5" r="5" fill="#2563eb"/>
<circle cx="617.0" cy="456.1" r="5" fill="#2563eb"/>
<circle cx="660.5" cy="452.7" r="5" fill="#2563eb"/>
<circle cx="704.0" cy="466.3" r="5" fill="#2563eb"/>
<circle cx="747.5" cy="462.9" r="5" fill="#2563eb"/>
<circle cx="791.0" cy="459.5" r="5" fill="#2563eb"/>
<circle cx="834.5" cy="456.1" r="5" fill="#2563eb"/>
<circle cx="878.0" cy="452.7" r="5" fill="#2563eb"/>
<circle cx="921.5" cy="449.3" r="5" fill="#2563eb"/>
<line x1="95" y1="55" x2="123" y2="55" stroke="#2563eb" stroke-width="4"/>
<text x="131" y="61" font-size="15" font-family="sans-serif">1 单/秒</text>
<polyline points="95.0,462.9 138.5,456.1 182.0,445.9 225.5,439.1 269.0,449.3 312.5,442.5 356.0,435.8 399.5,429.0 443.0,422.2 486.5,415.4 530.0,425.6 573.5,418.8 617.0,412.0 660.5,405.2 704.0,398.4 747.5,391.7 791.0,401.8 834.5,395.1 921.5,388.3 965.0,381.5" fill="none" stroke="#dc2626" stroke-width="3"/>
<circle cx="95.0" cy="462.9" r="5" fill="#dc2626"/>
<circle cx="138.5" cy="456.1" r="5" fill="#dc2626"/>
<circle cx="182.0" cy="445.9" r="5" fill="#dc2626"/>
<circle cx="225.5" cy="439.1" r="5" fill="#dc2626"/>
<circle cx="269.0" cy="449.3" r="5" fill="#dc2626"/>
<circle cx="312.5" cy="442.5" r="5" fill="#dc2626"/>
<circle cx="356.0" cy="435.8" r="5" fill="#dc2626"/>
<circle cx="399.5" cy="429.0" r="5" fill="#dc2626"/>
<circle cx="443.0" cy="422.2" r="5" fill="#dc2626"/>
<circle cx="486.5" cy="415.4" r="5" fill="#dc2626"/>
<circle cx="530.0" cy="425.6" r="5" fill="#dc2626"/>
<circle cx="573.5" cy="418.8" r="5" fill="#dc2626"/>
<circle cx="617.0" cy="412.0" r="5" fill="#dc2626"/>
<circle cx="660.5" cy="405.2" r="5" fill="#dc2626"/>
<circle cx="704.0" cy="398.4" r="5" fill="#dc2626"/>
<circle cx="747.5" cy="391.7" r="5" fill="#dc2626"/>
<circle cx="791.0" cy="401.8" r="5" fill="#dc2626"/>
<circle cx="834.5" cy="395.1" r="5" fill="#dc2626"/>
<circle cx="921.5" cy="388.3" r="5" fill="#dc2626"/>
<circle cx="965.0" cy="381.5" r="5" fill="#dc2626"/>
<line x1="275" y1="55" x2="303" y2="55" stroke="#dc2626" stroke-width="4"/>
<text x="311" y="61" font-size="15" font-family="sans-serif">2 单/秒</text>
<polyline points="95.0,395.1 138.5,374.7 182.0,357.7 225.5,340.8 269.0,323.8 312.5,306.9 356.0,306.9 399.5,289.9 443.0,273.0 486.5,256.0 530.0,235.6 573.5,235.6 617.0,218.7 660.5,201.7 704.0,184.8 747.5,167.8 791.0,147.5 834.5,147.5 878.0,130.5 921.5,113.5" fill="none" stroke="#16a34a" stroke-width="3"/>
<circle cx="95.0" cy="395.1" r="5" fill="#16a34a"/>
<circle cx="138.5" cy="374.7" r="5" fill="#16a34a"/>
<circle cx="182.0" cy="357.7" r="5" fill="#16a34a"/>
<circle cx="225.5" cy="340.8" r="5" fill="#16a34a"/>
<circle cx="269.0" cy="323.8" r="5" fill="#16a34a"/>
<circle cx="312.5" cy="306.9" r="5" fill="#16a34a"/>
<circle cx="356.0" cy="306.9" r="5" fill="#16a34a"/>
<circle cx="399.5" cy="289.9" r="5" fill="#16a34a"/>
<circle cx="443.0" cy="273.0" r="5" fill="#16a34a"/>
<circle cx="486.5" cy="256.0" r="5" fill="#16a34a"/>
<circle cx="530.0" cy="235.6" r="5" fill="#16a34a"/>
<circle cx="573.5" cy="235.6" r="5" fill="#16a34a"/>
<circle cx="617.0" cy="218.7" r="5" fill="#16a34a"/>
<circle cx="660.5" cy="201.7" r="5" fill="#16a34a"/>
<circle cx="704.0" cy="184.8" r="5" fill="#16a34a"/>
<circle cx="747.5" cy="167.8" r="5" fill="#16a34a"/>
<circle cx="791.0" cy="147.5" r="5" fill="#16a34a"/>
<circle cx="834.5" cy="147.5" r="5" fill="#16a34a"/>
<circle cx="878.0" cy="130.5" r="5" fill="#16a34a"/>
<circle cx="921.5" cy="113.5" r="5" fill="#16a34a"/>
<line x1="455" y1="55" x2="483" y2="55" stroke="#16a34a" stroke-width="4"/>
<text x="491" y="61" font-size="15" font-family="sans-serif">5 单/秒</text>
</svg>